<svg width="55" height="54" viewBox="0 0 55 54" fill="none" xmlns="http://www.w3.org/2000/svg">
<rect x="15.3065" y="13.2611" width="26.8137" height="26.9437" fill="#FFFFFF"/>
<path d="M27.5 37.6565C28.1375 37.6565 28.6723 37.4445 29.1042 37.0205C29.5347 36.598 29.75 36.0739 29.75 35.4482V28.8232H36.5562C37.1937 28.8232 37.7188 28.6112 38.1313 28.1872C38.5438 27.7646 38.75 27.2405 38.75 26.6148C38.75 25.9891 38.534 25.4643 38.102 25.0403C37.6715 24.6178 37.1375 24.4065 36.5 24.4065H29.75V17.7263C29.75 17.1006 29.5347 16.5853 29.1042 16.1805C28.6723 15.7756 28.1375 15.5732 27.5 15.5732C26.8625 15.5732 26.3285 15.7844 25.898 16.207C25.466 16.631 25.25 17.1558 25.25 17.7815V24.4065H18.4437C17.8062 24.4065 17.2812 24.6178 16.8688 25.0403C16.4563 25.4643 16.25 25.9891 16.25 26.6148C16.25 27.2405 16.4653 27.7646 16.8958 28.1872C17.3278 28.6112 17.8625 28.8232 18.5 28.8232H25.25V35.5034C25.25 36.1291 25.466 36.6443 25.898 37.0492C26.3285 37.4541 26.8625 37.6565 27.5 37.6565ZM27.5 48.6982C24.3875 48.6982 21.4625 48.1181 18.725 46.958C15.9875 45.7994 13.6063 44.2263 11.5813 42.2388C9.55625 40.2513 7.9535 37.9141 6.773 35.2273C5.591 32.5405 5 29.6697 5 26.6148C5 23.56 5.591 20.6891 6.773 18.0023C7.9535 15.3155 9.55625 12.9784 11.5813 10.9909C13.6063 9.00337 15.9875 7.42956 18.725 6.26945C21.4625 5.11081 24.3875 4.53149 27.5 4.53149C30.6125 4.53149 33.5375 5.11081 36.275 6.26945C39.0125 7.42956 41.3938 9.00337 43.4188 10.9909C45.4438 12.9784 47.0465 15.3155 48.227 18.0023C49.409 20.6891 50 23.56 50 26.6148C50 29.6697 49.409 32.5405 48.227 35.2273C47.0465 37.9141 45.4438 40.2513 43.4188 42.2388C41.3938 44.2263 39.0125 45.7994 36.275 46.958C33.5375 48.1181 30.6125 48.6982 27.5 48.6982Z" fill="#34C759"/>
</svg>
