<svg width="31" height="30" viewBox="0 0 31 30" fill="none" xmlns="http://www.w3.org/2000/svg">
<rect x="5.25935" y="6.35632" width="20.4813" height="17.4326" fill="#EFEFEF"/>
<path d="M13.225 21.8976L24.6812 10.4414L22.4062 8.16638L13.225 17.3476L8.59375 12.7164L6.31875 14.9914L13.225 21.8976ZM4.125 29.6976C3.23125 29.6976 2.46587 29.3797 1.82887 28.7438C1.19296 28.1068 0.875 27.3414 0.875 26.4476V3.69763C0.875 2.80388 1.19296 2.03851 1.82887 1.40151C2.46587 0.76559 3.23125 0.447632 4.125 0.447632H26.875C27.7687 0.447632 28.5341 0.76559 29.1711 1.40151C29.807 2.03851 30.125 2.80388 30.125 3.69763V26.4476C30.125 27.3414 29.807 28.1068 29.1711 28.7438C28.5341 29.3797 27.7687 29.6976 26.875 29.6976H4.125Z" fill="#34C759"/>
</svg>
