<svg width="31" height="30" viewBox="0 0 31 30" fill="none" xmlns="http://www.w3.org/2000/svg">
<path d="M4.125 29.6976C3.23125 29.6976 2.46587 29.3797 1.82887 28.7438C1.19296 28.1068 0.875 27.3414 0.875 26.4476V3.69763C0.875 2.80388 1.19296 2.03851 1.82887 1.40151C2.46587 0.76559 3.23125 0.447632 4.125 0.447632H26.875C27.7687 0.447632 28.5341 0.76559 29.1711 1.40151C29.807 2.03851 30.125 2.80388 30.125 3.69763V26.4476C30.125 27.3414 29.807 28.1068 29.1711 28.7438C28.5341 29.3797 27.7687 29.6976 26.875 29.6976H4.125Z" fill="#FF9500"/>
<path d="M22.662 12.1226L18.412 7.92263L19.812 6.52263C20.1953 6.1393 20.6663 5.94763 21.225 5.94763C21.783 5.94763 22.2537 6.1393 22.637 6.52263L24.037 7.92263C24.4203 8.30596 24.6203 8.76863 24.637 9.31063C24.6537 9.85196 24.4703 10.3143 24.087 10.6976L22.662 12.1226ZM21.212 13.5976L10.612 24.1976H6.36198V19.9476L16.962 9.34763L21.212 13.5976Z" fill="#EFEFEF"/>
</svg>
